<svg width="128" height="128" viewBox="0 0 128 128" fill="none" xmlns="http://www.w3.org/2000/svg">
<circle cx="64" cy="64" r="64" fill="#C6A052"/>
<circle cx="64.75" cy="64" r="53" fill="#0F1B27"/>
<path d="M95.7324 97.0053C96.837 97.0053 97.7324 96.1099 97.7324 95.0053L97.7324 77.0053C97.7324 75.9007 96.837 75.0053 95.7324 75.0053C94.6279 75.0053 93.7324 75.9007 93.7324 77.0053V93.0053H77.7324C76.6279 93.0053 75.7324 93.9007 75.7324 95.0053C75.7324 96.1099 76.6279 97.0053 77.7324 97.0053L95.7324 97.0053ZM84.1256 86.227L94.3182 96.4195L97.1466 93.5911L86.9541 83.3985L84.1256 86.227Z" fill="#C6A052"/>
<path d="M33.75 31C32.6454 31 31.75 31.8954 31.75 33L31.75 51C31.75 52.1046 32.6454 53 33.75 53C34.8546 53 35.75 52.1046 35.75 51V35H51.75C52.8546 35 53.75 34.1046 53.75 33C53.75 31.8954 52.8546 31 51.75 31L33.75 31ZM45.3568 41.7784L35.1642 31.5858L32.3358 34.4142L42.5284 44.6068L45.3568 41.7784Z" fill="#C6A052"/>
<g clip-path="url(#clip0_11_130)">
<path d="M62.6786 47.4275L56.4636 41.1148L39.75 57.8275V70.1714L39.7937 70.2148L62.6786 47.4275ZM50.2451 63.9997L56.4591 57.7857L70.9581 72.2848L64.7442 78.4986L50.2451 63.9997ZM70.9648 88.9563L48.1775 66.0714L41.8648 72.2864L58.5777 89H70.9212L70.9648 88.9563ZM58.535 39.0435L81.3228 61.929L87.6355 55.7143L70.9227 39H58.5784L58.535 39.0435ZM58.5313 55.7153L64.7453 49.5014L79.2445 64.0005L73.0306 70.2145L58.5313 55.7153ZM73.0362 86.885L89.75 70.1712V57.7426L66.8214 80.5725L73.0362 86.885ZM89.75 89V74.314L75.064 89H89.75ZM39.75 74.3142V89H54.435L39.75 74.3142ZM89.7069 53.6429L89.75 53.5998V39H75.0652L89.7069 53.6429ZM39.75 39V53.685L54.4356 39H39.75Z" fill="#C6A052"/>
</g>
<defs>
<clipPath id="clip0_11_130">
<rect width="50" height="50" fill="white" transform="translate(39.75 39)"/>
</clipPath>
</defs>
</svg>
