<svg width="64" height="64" viewBox="0 0 64 64" fill="none" xmlns="http://www.w3.org/2000/svg">
<circle cx="32" cy="32" r="32" fill="#C6A052"/>
<circle cx="32.375" cy="32" r="26.5" fill="#0F1B27"/>
<path d="M47.8662 48.5027C48.4185 48.5027 48.8662 48.0549 48.8662 47.5027L48.8662 38.5027C48.8662 37.9504 48.4185 37.5027 47.8662 37.5027C47.3139 37.5027 46.8662 37.9504 46.8662 38.5027V46.5027H38.8662C38.3139 46.5027 37.8662 46.9504 37.8662 47.5027C37.8662 48.0549 38.3139 48.5027 38.8662 48.5027L47.8662 48.5027ZM42.0628 43.1135L47.1591 48.2098L48.5733 46.7955L43.477 41.6993L42.0628 43.1135Z" fill="#C6A052"/>
<path d="M16.875 15.5C16.3227 15.5 15.875 15.9477 15.875 16.5L15.875 25.5C15.875 26.0523 16.3227 26.5 16.875 26.5C17.4273 26.5 17.875 26.0523 17.875 25.5V17.5H25.875C26.4273 17.5 26.875 17.0523 26.875 16.5C26.875 15.9477 26.4273 15.5 25.875 15.5L16.875 15.5ZM22.6784 20.8892L17.5821 15.7929L16.1679 17.2071L21.2642 22.3034L22.6784 20.8892Z" fill="#C6A052"/>
<g clip-path="url(#clip0_11_131)">
<path d="M31.3393 23.7138L28.2318 20.5574L19.875 28.9138V35.0857L19.8968 35.1074L31.3393 23.7138ZM25.1226 31.9999L28.2295 28.8929L35.4791 36.1424L32.3721 39.2493L25.1226 31.9999ZM35.4824 44.4782L24.0888 33.0357L20.9324 36.1432L29.2889 44.5H35.4606L35.4824 44.4782ZM29.2675 19.5217L40.6614 30.9645L43.8178 27.8571L35.4613 19.5H29.2892L29.2675 19.5217ZM29.2657 27.8577L32.3727 24.7507L39.6223 32.0002L36.5153 35.1072L29.2657 27.8577ZM36.5181 43.4425L44.875 35.0856V28.8713L33.4107 40.2862L36.5181 43.4425ZM44.875 44.5V37.157L37.532 44.5H44.875ZM19.875 37.1571V44.5H27.2175L19.875 37.1571ZM44.8535 26.8214L44.875 26.7999V19.5H37.5326L44.8535 26.8214ZM19.875 19.5V26.8425L27.2178 19.5H19.875Z" fill="#C6A052"/>
</g>
<defs>
<clipPath id="clip0_11_131">
<rect width="25" height="25" fill="white" transform="translate(19.875 19.5)"/>
</clipPath>
</defs>
</svg>
